<?xml version="1.0" encoding="UTF-8"?>
<svg width="1404px" height="117px" viewBox="0 0 1404 117" version="1.1" xmlns="http://www.w3.org/2000/svg" xmlns:xlink="http://www.w3.org/1999/xlink">
    <!-- Generator: Sketch 64 (93537) - https://sketch.com -->
    <title>Group</title>
    <desc>Created with Sketch.</desc>
    <defs>
        <polygon id="path-1" points="0 0.0290727273 4.8222613 0.0290727273 4.8222613 22.1933 0 22.1933"></polygon>
        <polygon id="path-3" points="0 80.3888864 84.6618889 80.3888864 84.6618889 0.000931818182 0 0.000931818182"></polygon>
        <polygon id="path-5" points="0 0.8222 8.84528727 0.8222 8.84528727 11.9602 0 11.9602"></polygon>
    </defs>
    <g id="---01-Atoms" stroke="none" stroke-width="1" fill="none" fill-rule="evenodd">
        <g id="01-Atoms/Brand-Logos/_Multibrand-Lockup/WW-black" transform="translate(0.000000, 0.000000)">
            <g id="Group">
                <g id="01-Atoms/Brand-Logos/Logitech-G/G/black" transform="translate(410.000000, 26.000000)" fill="#000000">
                    <g id="logitechg-black">
                        <path d="M32.1816127,0 L32.1816127,12.5946524 C21.8669932,12.5946524 13.6535,20.4434938 13.6535,30.3001783 C13.6535,39.9743316 21.8669932,48.0057041 32.1816127,48.0057041 L32.1816127,60.6003565 C14.6085573,60.6003565 0.282696977,47.0930481 0.282696977,30.3001783 C0.282696977,13.5073084 14.6085573,0 32.1816127,0 Z M32.5636356,24.8242424 L32.5636356,37.2363636 L47.8445533,37.2363636 L47.8445533,51.8388592 L60.8333333,51.8388592 L60.8333333,24.8242424 L32.5636356,24.8242424 Z" id="Shape" fill-rule="nonzero"></path>
                        <g id="Group" transform="translate(60.833333, 54.303030)" fill-rule="nonzero">
                            <polygon id="Shape" points="0.625714286 1.66233766 4.79714286 1.66233766 4.79714286 2.49350649 3.12857143 2.49350649 3.12857143 7.8961039 2.29428571 7.8961039 2.29428571 2.49350649 0.625714286 2.49350649"></polygon>
                            <polygon id="Shape" points="8.96857143 6.64935065 8.34285714 6.64935065 6.46571429 3.74025974 6.46571429 7.8961039 5.63142857 7.8961039 5.63142857 1.66233766 6.25714286 1.66233766 8.76 5.4025974 11.0542857 1.66233766 11.68 1.66233766 11.68 7.8961039 10.8457143 7.8961039 10.8457143 3.74025974"></polygon>
                        </g>
                    </g>
                </g>
                <g id="01-Atoms/Brand-Logos/Blue/black" transform="translate(957.000000, 17.000000)" fill="#000000">
                    <g id="blue-black">
                        <path d="M106.460163,24.8022336 C103.610482,19.9181014 99.5619688,15.530014 94.4128895,11.7906003 C89.3227691,8.08934388 83.4072238,5.17031177 76.8234773,3.1479758 C70.0432011,1.06840391 62.8698654,0 55.4606941,0 C48.0711756,0 40.878187,1.06840391 34.0979108,3.1479758 C27.5338173,5.17031177 21.618272,8.08934388 16.5084986,11.7906003 C11.3594193,15.530014 7.31090652,19.9181014 4.46122521,24.8022336 C1.51327904,29.9343881 0,35.3908795 0,41 C0,46.6091205 1.51327904,52.0846906 4.50053116,57.1977664 C7.35021246,62.0818986 11.3987252,66.469986 16.5478045,70.2093997 C21.6379249,73.9106561 27.5534703,76.8296882 34.1372167,78.8520242 C40.9174929,80.9506747 48.0908286,82 55.5,82 C62.8895184,82 70.0825071,80.9315961 76.8627833,78.8520242 C83.4465297,76.8296882 89.3620751,73.9106561 94.4521955,70.2093997 C99.6012748,66.469986 103.649788,62.0818986 106.499469,57.1977664 C109.486721,52.0656119 111,46.6281992 111,41 C110.960694,35.3908795 109.447415,29.9343881 106.460163,24.8022336 Z M88.9690156,41.3052583 L88.9690156,45.9413681 L84.1343839,47.1051652 L84.1343839,41.4960447 C84.1343839,40.2368544 85.3332153,39.9697534 86.35517,39.9697534 C87.5343484,39.9697534 88.9690156,40.1986971 88.9690156,41.3052583 L88.9690156,41.3052583 Z M101.586225,41.3815728 L95.4544972,43.0604933 C94.2753187,39.8552815 90.7770892,37.6230805 86.8464943,37.6230805 C81.6188031,37.6230805 76.0570113,40.9427641 76.0570113,47.1242438 C76.0570113,51.741275 79.41767,56.3964635 86.9447592,56.3964635 C91.6221671,56.3964635 94.805949,54.240577 95.9458215,50.3103769 L96.0637394,49.9288041 L93.5481586,50.9208934 L93.5088527,50.9781294 C92.3493272,53.1912517 90.1875,54.3550489 87.2395538,54.3550489 C85.0384207,54.3550489 84.1540368,53.6109819 84.1540368,51.7985109 L84.1540368,49.2801303 L94.9631728,46.532806 L98.5007082,45.6361098 L98.0879958,48.8604002 L104.652089,46.2847836 C102.902975,54.4504421 97.144653,61.9865054 88.3990793,67.5002327 C79.3390581,73.223825 67.6455382,76.3718008 55.5,76.3718008 C42.4700779,76.3718008 30.1476629,72.8040949 20.832153,66.3364356 C11.6738669,60.0214053 6.36756374,51.5695672 5.79762748,42.5644486 L10.7501771,41.7822243 L10.1605878,45.0637506 L18.5524079,43.499302 L18.513102,53.9925547 L15.9189093,53.9353188 L15.9189093,56.1293625 L27.9072238,56.1293625 C29.5580737,56.1293625 31.2678824,56.1293625 33.174221,55.8241042 C39.5614377,54.774779 45.1821884,49.032108 45.1821884,43.5374593 C45.1821884,39.3592369 41.644653,36.4402047 36.5741856,36.4402047 L36.0632082,36.4402047 C39.0308074,34.780363 40.9764518,32.9106561 41.8215297,30.8310842 L46.0076133,29.8962308 L46.0076133,53.973476 L43.3741147,53.973476 L43.3741147,56.0721266 L55.9323654,56.0721266 L55.9323654,53.973476 L53.0630312,53.973476 L53.0630312,25.7561657 L52.4930949,25.9087948 L42.3325071,28.2554677 C42.3325071,28.1028385 42.3325071,27.969288 42.3128541,27.8166589 C42.0966714,24.7449977 39.6793555,22.9897627 35.6701487,22.9897627 C34.5892351,22.9897627 33.4493626,23.1233132 32.388102,23.3713355 L15.9582153,27.3587715 L15.6044618,27.4541647 L15.6044618,29.991624 L18.5524079,29.3047929 L18.5524079,39.9697534 L13.6588173,41 L14.2484065,37.966496 L5.79762748,39.9315961 C5.81728045,39.6072592 5.81728045,39.3973941 5.81728045,39.3973941 C6.40686969,30.3731968 11.7721317,21.9022801 20.9304178,15.5681712 C30.2262748,9.13866915 42.5093839,5.59004188 55.480347,5.59004188 C82.8962465,5.59004188 105.202373,21.48255 105.202373,41 C105.202373,41.8394602 105.163067,42.6979991 105.084455,43.5183806 L101.212819,44.5677059 L101.586225,41.3815728 L101.586225,41.3815728 Z M27.0621459,26.9390414 C27.7106941,26.8054909 28.3592422,26.7291764 28.9881374,26.7291764 C31.9360836,26.7291764 33.921034,28.2554677 33.921034,30.5449046 C33.921034,33.4257794 30.9337819,36.535598 27.0817989,37.6993951 L27.0621459,26.9390414 L27.0621459,26.9390414 Z M27.0621459,40.1796184 C27.4552054,40.0269893 27.9072238,39.8743602 28.496813,39.721731 C29.322238,39.5309446 30.1083569,39.4355514 30.835517,39.4355514 C34.3337465,39.4355514 36.6724504,41.4388087 36.6724504,44.4341554 C36.6724504,48.2498837 32.8990793,52.2563983 28.2609773,53.3820382 C27.8482649,53.4774314 27.4552054,53.5537459 27.0621459,53.6109819 L27.0621459,40.1796184 L27.0621459,40.1796184 Z" id="Shape" fill-rule="nonzero"></path>
                        <path d="M74.8900877,35.9155539 L66.3207015,38.1865727 L66.3207015,41.0861771 L67.8251048,40.660361 L67.8251048,48.953635 C67.8251048,50.1702522 66.1112276,53.2929031 64.2069196,53.2929031 C63.845101,53.2929031 63.597541,53.2117953 63.4261533,53.0495796 C63.0452917,52.6237636 63.0643347,51.4882542 63.0643347,50.271637 L63.0452917,36.6860781 L63.0452917,35.875 L54.2093023,38.1865727 L54.2093023,41.0861771 L55.9993519,40.6198071 L55.9993519,48.9130811 C55.9993519,51.1840999 55.9993519,52.9887488 56.7229889,54.2864738 C57.5227983,55.7261375 59.0843309,56.375 61.7694053,56.375 C64.3592642,56.375 66.4920892,55.4422601 67.8060618,53.738996 L67.8060618,56.1519535 L77.4418605,55.6653066 L77.4418605,53.0293027 L74.8710446,53.1712413 L74.8710446,35.9155539 L74.8900877,35.9155539 Z" id="Shape" fill-rule="nonzero"></path>
                    </g>
                </g>
                <g id="01-Atoms/Brand-Logos/Ultimate-Ears/black" transform="translate(1269.000000, 26.000000)">
                    <g id="ultimate-ears-black">
                        <polygon id="Fill-1" fill="#000000" fill-rule="nonzero" points="-2.67326732e-05 62.6840256 134.810974 62.6840256 134.810974 0.0770347319 -2.67326732e-05 0.0770347319"></polygon>
                        <polygon id="Fill-1-path" fill="#FFFFFF" fill-rule="nonzero" points="119.594469 30.4862818 108.972775 30.4862818 108.972775 14.8344674 119.370181 14.8344674 119.370181 17.696329 112.333874 17.696329 112.333874 21.0503273 118.832587 21.0503273 118.832587 24.0018138 112.333874 24.0018138 112.333874 27.2885935 119.594469 27.2885935"></polygon>
                        <polygon id="Fill-1-path" fill="#FFFFFF" fill-rule="nonzero" points="107.001775 17.696329 102.407765 17.696329 102.407765 30.4862818 99.046399 30.4862818 99.046399 17.696329 94.4526564 17.696329 94.4526564 14.8344674 107.001775 14.8344674"></polygon>
                        <polygon id="Fill-1-path" fill="#FFFFFF" fill-rule="nonzero" points="91.4946861 30.4862818 90.1952109 26.9087547 84.4583792 26.9087547 83.1586366 30.4862818 79.7526267 30.4862818 85.2651713 14.8344674 89.3884189 14.8344674 94.900696 30.4862818"></polygon>
                        <path d="M91.123904,46.3312165 C90.8766267,46.8060151 90.5368545,47.217596 90.1048545,47.5662262 C89.6736564,47.9151231 89.1403396,48.1743951 88.504904,48.3453759 C87.8702703,48.51609 87.1530326,48.6019805 86.3526564,48.6019805 C85.5271515,48.6019805 84.7714189,48.488349 84.0857257,48.2594854 C83.4000326,48.0314221 82.8255475,47.7220028 82.362003,47.3285602 C81.8987257,46.935651 81.5429139,46.41604 81.2953693,45.7702607 C81.0480921,45.123681 80.9307356,44.3957455 80.9433,43.5843201 L83.7809733,43.5843201 C83.7935376,44.3957455 84.0007159,45.0065818 84.4003693,45.4189631 C84.8000228,45.8302774 85.4509634,46.06821 86.3526564,46.1308942 C87.1019733,46.156768 87.679399,46.0620751 88.086003,45.8462818 C88.4923396,45.6307553 88.7369436,45.3456093 88.8192802,44.9903106 C88.9018841,44.6363456 88.8543,44.3223918 88.676795,44.050583 C88.4984881,43.7777071 88.111399,43.5344396 87.5144584,43.318913 C86.9172505,43.1033865 85.8578346,42.7043423 84.3340723,42.1212471 C82.2769931,41.3226252 81.2729139,40.1249592 81.3239733,38.5285157 C81.3365376,37.9846313 81.470201,37.4839589 81.7236267,37.0278321 C81.9786564,36.5717055 82.3208346,36.1817305 82.7528346,35.8589741 C83.1840326,35.5359511 83.6983693,35.2854815 84.2955772,35.1075654 C84.8925179,34.9304495 85.5779436,34.8418917 86.3526564,34.8418917 C87.1530326,34.8293548 87.8665277,34.9304495 88.4955475,35.1459761 C89.1240326,35.3615026 89.6602901,35.6469153 90.1048545,36.0008803 C90.5494189,36.356179 90.8891911,36.78003 91.123904,37.2745673 C91.3586169,37.7691048 91.4762406,38.338863 91.4762406,38.9854426 L88.6383,38.9854426 C88.6634287,38.4023473 88.4733594,37.9651592 88.0672901,37.6736115 C87.6601515,37.3828642 87.0894089,37.2308219 86.3526564,37.2172181 C85.6920921,37.1924112 85.1782901,37.2809691 84.8099139,37.4839589 C84.4415376,37.6869486 84.2255376,37.9910331 84.1621811,38.3962122 C84.1116564,38.7763179 84.2704485,39.0929391 84.6388248,39.3460761 C85.006399,39.6000133 85.5592307,39.8595521 86.2951811,40.1249592 L88.0477752,40.7528669 C89.4827851,41.2850148 90.4291218,41.8262317 90.8865179,42.3778516 C91.3436465,42.9289381 91.5585772,43.666743 91.5337159,44.5915332 C91.5083198,45.2757232 91.3711811,45.855351 91.123904,46.3312165 L91.123904,46.3312165 Z" id="Fill-1-path" fill="#FFFFFF" fill-rule="nonzero"></path>
                        <path d="M76.5626169,48.3739172 L74.1622901,43.6792798 L71.9151416,43.6792798 L71.9151416,48.3739172 L69.0576861,48.3739172 L69.0576861,35.0699549 L74.2382109,35.0699549 C75.0129238,35.0699549 75.7111811,35.1523779 76.3340525,35.3166902 C76.9561218,35.4823362 77.4859634,35.7354732 77.9243792,36.0769014 C78.3625277,36.4196632 78.6985574,36.8507163 78.9335376,37.3695271 C79.1685179,37.889138 79.2856069,38.5098438 79.2856069,39.2324445 C79.2856069,40.3092771 79.0893891,41.1679155 78.6958841,41.8072932 C78.3015772,42.4477377 77.6920723,42.9513443 76.8673693,43.318913 L79.9715674,48.3739172 L76.5626169,48.3739172 Z" id="Fill-1-path" fill="#FFFFFF" fill-rule="nonzero"></path>
                        <polygon id="Fill-1-path" fill="#FFFFFF" fill-rule="nonzero" points="64.380003 17.696329 64.200894 17.696329 64.200894 30.4862818 61.2204684 30.4862818 61.2204684 14.8344674 66.5760921 14.8344674 69.5565179 25.9471543 69.7356267 25.9471543 72.7163198 14.8344674 78.0719436 14.8344674 78.0719436 30.4862818 75.0912505 30.4862818 75.0912505 17.696329 74.9124089 17.696329 71.1925574 30.4862818 68.0998545 30.4862818"></polygon>
                        <polygon id="Fill-1-path" fill="#FFFFFF" fill-rule="nonzero" points="64.8868545 48.3739172 63.7814584 45.3330725 58.9054189 45.3330725 57.8010921 48.3739172 54.9059436 48.3739172 59.5911119 35.0699549 63.0960326 35.0699549 67.782003 48.3739172"></polygon>
                        <polygon id="Fill-1-path" fill="#FFFFFF" fill-rule="nonzero" points="53.2862109 48.3739172 44.2583198 48.3739172 44.2583198 35.0699549 53.0964089 35.0699549 53.0964089 37.5026307 47.1157752 37.5026307 47.1157752 40.3540894 52.6392802 40.3540894 52.6392802 42.8617194 47.1157752 42.8617194 47.1157752 45.6558289 53.2862109 45.6558289"></polygon>
                        <polygon id="Fill-1-path" fill="#FFFFFF" fill-rule="nonzero" points="54.4528248 30.4862818 57.859102 30.4862818 57.859102 14.8344674 54.4528248 14.8344674"></polygon>
                        <polygon id="Fill-1-path" fill="#FFFFFF" fill-rule="nonzero" points="39.6640426 17.696329 39.6640426 14.8344674 52.212894 14.8344674 52.212894 17.696329 47.6194189 17.696329 47.6194189 30.4862818 44.2580525 30.4862818 44.2580525 17.696329"></polygon>
                        <polygon id="Fill-1-path" fill="#FFFFFF" fill-rule="nonzero" points="41.2327159 30.4862818 30.7679436 30.4862818 30.7679436 14.8344674 34.1293099 14.8344674 34.1293099 27.2885935 41.2327159 27.2885935"></polygon>
                        <path d="M27.8995277,23.7558788 C27.8995277,24.3819194 27.8845574,24.9266041 27.8546169,25.3880656 C27.8241416,25.8505941 27.7722802,26.2637755 27.697696,26.629477 C27.6225772,26.9943784 27.5220624,27.3192687 27.3958841,27.6017472 C27.2686366,27.8852926 27.1071713,28.168838 26.9136267,28.4513165 C25.837904,29.9872098 24.0371911,30.754623 21.5130921,30.754623 C18.9879238,30.754623 17.1882802,29.9872098 16.1125574,28.4513165 C15.9179436,28.168838 15.7575475,27.8852926 15.6303,27.6017472 C15.5038545,27.3192687 15.4025376,26.9943784 15.3282208,26.629477 C15.253102,26.2637755 15.2009733,25.8543284 15.1713,25.3998021 C15.1410921,24.9444757 15.1266564,24.3971237 15.1266564,23.7558788 L15.1266564,14.8344674 L18.4877555,14.8344674 L18.4877555,23.2864151 L18.4877555,23.8230975 C18.4877555,24.6278544 18.5623396,25.2843034 18.7120426,25.7905774 C18.8609436,26.2979183 19.1790624,26.7332392 19.6639931,27.0984073 C20.1497257,27.4641089 20.7656465,27.6465596 21.5130921,27.6465596 C22.2597356,27.6465596 22.8764584,27.4641089 23.3624584,27.0984073 C23.8471218,26.7332392 24.164706,26.2979183 24.3141416,25.7905774 C24.4630426,25.2843034 24.5381614,24.6278544 24.5381614,23.8230975 L24.5381614,23.2864151 L24.5381614,14.8344674 L27.8995277,14.8344674 L27.8995277,23.7558788 Z" id="Fill-1-path" fill="#FFFFFF" fill-rule="nonzero"></path>
                        <path d="M74.5431238,37.5025505 L71.9150346,37.5025505 L71.9150346,41.0758097 L74.5431238,41.0758097 C75.2673119,41.0758097 75.7936782,40.9211 76.1243614,40.6098135 C76.4542426,40.2993273 76.6191831,39.8594717 76.6191831,39.2886465 C76.6191831,38.7188883 76.4542426,38.2790328 76.1243614,37.9685465 C75.7936782,37.658327 75.2673119,37.5025505 74.5431238,37.5025505" id="Fill-4" fill="#000000" fill-rule="nonzero"></path>
                        <polygon id="Fill-6" fill="#000000" fill-rule="nonzero" points="87.2369733 17.6963287 85.1082505 24.0018135 89.5450723 24.0018135 87.4163495 17.6963287"></polygon>
                        <polygon id="Fill-8" fill="#000000" fill-rule="nonzero" points="61.2671436 37.5025505 59.4573416 42.861639 63.2293218 42.861639 61.4195198 37.5025505"></polygon>
                    </g>
                </g>
                <g id="01-Atoms/Brand-Logos/ASTRO-Gaming/black" transform="translate(541.000000, 38.000000)" fill="#000000">
                    <g id="astro-black">
                        <polygon id="Path" fill-rule="nonzero" points="44.4508197 10.8333333 39.7276973 13.6666667 41.1535456 8.58333333 36.7868852 5.25 42.4011628 4.91666667 44.4508197 0 46.5004766 4.91666667 52.1147541 5.25 47.7480938 8.58333333 49.1739421 13.6666667"></polygon>
                        <g id="Group" transform="translate(0.000000, 9.111111)" fill-rule="nonzero">
                            <path d="M59.7193548,14.2660819 C59.7193548,14.2660819 54.8073733,19.4690058 54.8073733,19.4690058 C51.7050691,22.7418129 47.7410138,24.5880117 43.4322581,24.5880117 L41.3640553,24.5880117 L41.3640553,31.1336257 L43.4322581,31.1336257 C49.6368664,31.1336257 55.4105991,28.5321637 59.7193548,23.9166667 C59.7193548,23.9166667 64.6313364,18.7137427 64.6313364,18.7137427 C67.7336406,15.4409357 71.6976959,13.5947368 76.0064516,13.5947368 L78.0746544,13.5947368 L78.0746544,7.04912281 L76.0064516,7.04912281 C69.8880184,7.04912281 64.0281106,9.6505848 59.7193548,14.2660819 Z" id="Path"></path>
                            <path d="M12.4092166,7.04912281 C5.51520737,7.04912281 0,12.419883 0,19.1333333 L0,31.2175439 L12.4092166,31.2175439 C15.683871,31.2175439 18.8723502,29.9587719 21.1990783,27.6929825 C21.1990783,27.6929825 27.2313364,21.8187135 30.8506912,18.294152 C30.8506912,23.0774854 30.8506912,31.2175439 30.8506912,31.2175439 L37.5723502,31.2175439 L37.5723502,7.04912281 L12.4092166,7.04912281 Z M16.3732719,22.9935673 C15.3391705,24.0005848 13.8741935,24.5880117 12.3230415,24.5880117 C12.3230415,24.5880117 9.6516129,24.5880117 6.63548387,24.5880117 C6.63548387,21.9865497 6.63548387,19.0494152 6.63548387,19.0494152 C6.63548387,16.0283626 9.22073733,13.5108187 12.3230415,13.5108187 C12.3230415,13.5108187 19.3032258,13.5108187 26.1110599,13.5108187 C22.5778802,17.0353801 16.3732719,22.9935673 16.3732719,22.9935673 Z" id="Shape"></path>
                            <path d="M88.5880184,7.04912281 L88.5880184,0.587426901 L81.8663594,0.587426901 L81.8663594,19.1333333 C81.8663594,25.7628655 87.3815668,31.2175439 94.275576,31.2175439 L112.889401,31.2175439 L112.889401,24.6719298 L94.275576,24.6719298 C91.1732719,24.6719298 88.5880184,22.2383041 88.5880184,19.1333333 L88.5880184,13.5947368 L112.889401,13.5947368 L112.889401,7.04912281 L88.5880184,7.04912281 Z" id="Path"></path>
                            <path d="M129.348848,7.04912281 C122.541014,7.04912281 116.939631,12.419883 116.939631,19.1333333 L116.939631,31.2175439 L123.66129,31.2175439 L123.66129,19.1333333 C123.66129,16.1122807 126.246544,13.5947368 129.348848,13.5947368 L147.100922,13.5947368 L147.100922,7.04912281 L129.348848,7.04912281 Z" id="Path"></path>
                            <path d="M161.664516,7.04912281 C154.856682,7.04912281 149.2553,12.419883 149.2553,19.1333333 C149.2553,25.7628655 154.770507,31.2175439 161.664516,31.2175439 L173.901382,31.2175439 C180.709217,31.2175439 186.310599,25.8467836 186.310599,19.1333333 L186.310599,7.04912281 L161.664516,7.04912281 Z M179.58894,19.1333333 C179.58894,22.2383041 177.003687,24.6719298 173.901382,24.6719298 L161.664516,24.6719298 C158.562212,24.6719298 155.976959,22.2383041 155.976959,19.1333333 C155.976959,16.1122807 158.562212,13.5947368 161.664516,13.5947368 C161.664516,13.5947368 174.676959,13.5947368 179.58894,13.5947368 C179.58894,16.1122807 179.58894,19.1333333 179.58894,19.1333333 Z" id="Shape"></path>
                        </g>
                    </g>
                </g>
                <g id="01-Atoms/Brand-Logos/Jaybird/vertical/black" transform="translate(1126.000000, 17.000000)">
                    <g id="jaybird-vertical-black">
                        <path d="M8.43823333,61.3902318 C7.65245556,62.1338227 7.23878889,63.1606864 7.23878889,64.3590045 L7.23878889,69.3684591 C7.23878889,71.0531864 8.37212222,73.5597773 11.4869,73.5597773 L13.8461222,73.5597773 L13.8461222,70.80905 L11.4869,70.80905 C10.3082333,70.80905 10.0400111,70.0188682 10.0230111,69.3516864 L10.0230111,64.3590045 C10.0230111,63.7719591 10.2213444,63.5147773 10.3686778,63.3712773 C10.8276778,62.9258682 11.7381222,62.8438682 12.0176778,62.8513227 L17.2669,62.8513227 L17.2669,73.5504591 L20.0530111,73.5504591 L20.0530111,60.1005955 L12.0573444,60.1005955 L12.1083444,60.1005955 C11.8797889,60.0931409 9.83223333,60.0595955 8.43823333,61.3902318" id="Fill-1" fill="#000000"></path>
                        <g id="Group-5" transform="translate(0.000000, 58.025250)">
                            <mask id="mask-2" fill="white">
                                <use xlink:href="#path-1"></use>
                            </mask>
                            <g id="Clip-4"></g>
                            <path d="M2.03924444,0.0290727273 L2.03924444,17.4373 C2.03924444,17.7280273 1.95235556,18.5014364 1.49524444,18.9598909 C1.16657778,19.2841636 0.679244444,19.4444364 -0.000755555556,19.4444364 L-0.000755555556,22.1933 C1.82202222,22.1933 2.91568889,21.4702091 3.5088,20.8608 C4.86124444,19.4779818 4.83102222,17.5994364 4.81968889,17.3869818 L4.81968889,17.4373 L4.81968889,0.0290727273 L2.03924444,0.0290727273 Z" id="Fill-3" fill="#000000" mask="url(#mask-2)"></path>
                        </g>
                        <path d="M36.3169111,59.9889636 L33.5345778,59.9889636 L33.5345778,68.8673273 C33.5345778,69.1841455 33.4552444,70.0786909 32.9981333,70.5352818 C32.8564667,70.6806455 32.6014667,70.8726 32.0045778,70.8726 L26.9234667,70.8726 C26.2680222,70.8576909 25.4652444,70.5893273 25.4652444,69.4264182 L25.4652444,59.9889636 L22.6753556,59.9889636 L22.6753556,69.4264182 C22.6753556,72.5051455 25.2196889,73.6177364 26.9234667,73.6177364 L32.0045778,73.6177364 C32.5561333,73.6177364 33.0623556,73.5338727 33.5345778,73.3717364 L33.5345778,75.6341909 C33.5345778,75.9323727 33.4458,76.6983273 32.9886889,77.1586455 C32.6600222,77.4829182 32.1745778,77.6413273 31.4964667,77.6413273 L31.4964667,80.3883273 C33.3211333,80.3883273 34.4110222,79.6652364 35.0060222,79.0576909 C36.2980222,77.7307818 36.3244667,75.9547364 36.3169111,75.6267364 L36.3169111,59.9889636 Z" id="Fill-6" fill="#000000"></path>
                        <path d="M39.6509889,56.0233318 L39.6509889,73.5657409 L48.6912111,73.5657409 L48.6383222,73.5657409 C48.8668778,73.5731955 50.9144333,73.6067409 52.3084333,72.2779682 C53.0942111,71.5325136 53.5078778,70.50565 53.5078778,69.3091955 L53.5078778,64.2960136 C53.5078778,62.6150136 52.3745444,60.1065591 49.2597667,60.1065591 L45.9239889,60.1065591 L45.9239889,62.8572864 L49.2597667,62.8572864 C50.4384333,62.8572864 50.7085444,63.6511955 50.7217667,64.3165136 L50.7217667,69.3091955 C50.7217667,69.8962409 50.5253222,70.1515591 50.3836556,70.2913318 C49.9208778,70.7386045 49.0142111,70.8187409 48.7308778,70.81315 L42.4314333,70.81315 L42.4314333,56.0233318 L39.6509889,56.0233318 Z" id="Fill-8" fill="#000000"></path>
                        <path d="M84.6615111,56.0233318 L84.6615111,73.5657409 L75.6212889,73.5657409 L75.6722889,73.5657409 C75.4437333,73.5731955 73.3942889,73.6067409 71.9984,72.2779682 C71.2107333,71.5325136 70.7951778,70.50565 70.7951778,69.3091955 L70.7951778,64.2960136 C70.7951778,62.6150136 71.9322889,60.1065591 75.0527333,60.1065591 L78.3828444,60.1065591 L78.3828444,62.8572864 L75.0527333,62.8572864 C73.8740667,62.8572864 73.6039556,63.6511955 73.5869556,64.3165136 L73.5869556,69.3091955 C73.5869556,69.8962409 73.7815111,70.1515591 73.9250667,70.2913318 C74.3897333,70.7386045 75.2945111,70.8187409 75.5816222,70.81315 L81.8772889,70.81315 L81.8772889,56.0233318 L84.6615111,56.0233318 Z" id="Fill-10" fill="#000000"></path>
                        <mask id="mask-4" fill="white">
                            <use xlink:href="#path-3"></use>
                        </mask>
                        <g id="Clip-13"></g>
                        <polygon id="Fill-12" fill="#000000" mask="url(#mask-4)" points="56.2152222 73.60525 59.007 73.60525 59.007 60.11625 56.2152222 60.11625"></polygon>
                        <path d="M66.2163222,60.0363 C63.0958778,60.0363 61.9587667,62.5466182 61.9587667,64.2313455 L61.9587667,73.5942545 L64.7505444,73.5942545 L64.7505444,64.2313455 C64.7637667,63.5772091 65.0338778,62.7907545 66.2163222,62.7907545 L69.4406556,62.7907545 L69.4406556,60.0363 L66.2163222,60.0363 Z" id="Fill-14" fill="#000000" mask="url(#mask-4)"></path>
                        <path d="M27.0043111,0.350736364 L26.0447556,0.000372727273 L26.3262,0.9676 C26.3809778,1.16514545 27.7353111,5.78323636 31.6453111,8.54328182 C34.3615333,10.4646909 35.5723111,12.8911455 35.5874222,16.4041 L35.6762,26.2124182 C35.6592,26.6634182 35.1737556,37.5153727 23.3379778,39.9213273 C23.1944222,39.2876909 23.0414222,38.3614636 23.0414222,37.1985545 C23.0414222,34.3304182 25.0172,30.1446909 29.2974222,26.0912818 C31.5999778,23.9108273 32.5444222,20.5842364 32.5897556,20.4444636 L32.8579778,19.4735091 L31.9040889,19.8257364 C11.9952,27.1871 18.1359778,47.0516 18.2134222,47.2435545 L18.3494222,47.6125545 L18.7442,47.5864636 C18.9652,47.5715545 41.7338667,45.7582364 41.7338667,25.6123273 L41.7338667,17.1980091 C41.7338667,9.79378182 36.4997556,3.81150909 27.0043111,0.350736364" id="Fill-15" fill="#000000" mask="url(#mask-4)"></path>
                        <path d="M59.5885889,0.350736364 L60.5557,0.000372727273 L60.2685889,0.9676 C60.2194778,1.16514545 58.8727,5.78323636 54.9627,8.54328182 C52.2445889,10.4646909 51.0224778,12.8911455 51.0168111,16.4041 L50.9242556,26.2124182 C50.9469222,26.6634182 51.4323667,37.5153727 63.2605889,39.9213273 C63.4060333,39.2876909 63.5609222,38.3614636 63.5609222,37.1985545 C63.5609222,34.3304182 61.5889222,30.1446909 57.3030333,26.0912818 C54.9985889,23.9108273 54.0560333,20.5842364 54.0125889,20.4444636 L53.7481444,19.4735091 L54.7020333,19.8257364 C74.6052556,27.1871 68.4588111,47.0516 68.3927,47.2435545 L68.2529222,47.6125545 L67.8562556,47.5864636 C67.6352556,47.5715545 44.8703667,45.7582364 44.8703667,25.6123273 L44.8703667,17.1980091 C44.8703667,9.79378182 50.1025889,3.81150909 59.5885889,0.350736364" id="Fill-16" fill="#000000" mask="url(#mask-4)"></path>
                    </g>
                </g>
                <g id="01-Atoms/Brand-Logos/Streamlabs/vertical/black" transform="translate(787.000000, 17.000000)">
                    <g id="streamlabs-vertical-black">
                        <g id="Group-3" transform="translate(0.000000, 68.157800)">
                            <mask id="mask-6" fill="white">
                                <use xlink:href="#path-5"></use>
                            </mask>
                            <g id="Clip-2"></g>
                            <path d="M4.68581455,11.9602 C7.03901455,11.9602 8.84528727,10.8742 8.84528727,8.4822 L8.84528727,8.4422 C8.84528727,6.4722 7.07937818,5.7482 5.55766909,5.2462 C4.38106909,4.8422 3.34776,4.5622 3.34776,3.9602 L3.34776,3.9182 C3.34776,3.4962 3.73323273,3.1742 4.48197818,3.1742 C5.13183273,3.1742 5.96332364,3.4362 6.83517818,3.8582 C7.03901455,3.9602 7.18028727,4.0002 7.40430545,4.0002 C8.09250545,4.0002 8.64145091,3.4762 8.64145091,2.7942 C8.64145091,2.2702 8.35688727,1.8682 7.91086909,1.6482 C6.85737818,1.1242 5.68077818,0.8222 4.54454182,0.8222 C2.35279636,0.8222 0.566705455,2.0482 0.566705455,4.2402 L0.566705455,4.2802 C0.566705455,6.3722 2.29225091,7.0742 3.81396,7.5162 C5.01074182,7.8782 6.06625091,8.1002 6.06625091,8.7622 L6.06625091,8.8042 C6.06625091,9.2862 5.65857818,9.6082 4.76856,9.6082 C3.89468727,9.6082 2.86137818,9.2862 1.82605091,8.6422 C1.66257818,8.5422 1.44057818,8.4822 1.21656,8.4822 C0.526341818,8.4822 -0.000403636364,9.0042 -0.000403636364,9.6882 C-0.000403636364,10.1702 0.263978182,10.5322 0.588905455,10.7342 C1.90677818,11.5782 3.34776,11.9602 4.68581455,11.9602" id="Fill-1" fill="#000000" mask="url(#mask-6)"></path>
                        </g>
                        <path d="M14.5282855,80.0976 C15.1983218,80.0976 15.7250673,80.0176 16.2941945,79.7956 C16.7180127,79.6356 17.0833036,79.1936 17.0833036,78.6496 C17.0833036,77.9456 16.4960127,77.3836 15.8057945,77.3836 C15.7452491,77.3836 15.5414127,77.4036 15.4405036,77.4036 C14.7502855,77.4036 14.44554,77.0616 14.44554,76.3576 L14.44554,71.7556 L15.8057945,71.7556 C16.5363764,71.7556 17.1256855,71.1716 17.1256855,70.4476 C17.1256855,69.7236 16.5363764,69.1416 15.8057945,69.1416 L14.44554,69.1416 L14.44554,67.7956 C14.44554,66.9496 13.75734,66.2656 12.9056673,66.2656 C12.0519764,66.2656 11.3637764,66.9496 11.3637764,67.7956 L11.3637764,69.1416 L11.2628673,69.1416 C10.5322855,69.1416 9.94499455,69.7236 9.94499455,70.4476 C9.94499455,71.1716 10.5322855,71.7556 11.2628673,71.7556 L11.3637764,71.7556 L11.3637764,76.8616 C11.3637764,79.3536 12.6412855,80.0976 14.5282855,80.0976" id="Fill-4" fill="#000000"></path>
                        <path d="M19.27626,78.5096 C19.27626,79.3536 19.96446,80.0376 20.8181509,80.0376 C21.6698236,80.0376 22.3580236,79.3536 22.3580236,78.5096 L22.3580236,75.6536 C22.3580236,73.4836 23.2318964,72.2976 24.7939691,71.9356 C25.4216236,71.7956 25.9503873,71.3116 25.9503873,70.5096 C25.9503873,69.6436 25.4014418,69.0216 24.44886,69.0216 C23.5346236,69.0216 22.80606,69.9856 22.3580236,71.0316 L22.3580236,70.5496 C22.3580236,69.7036 21.6698236,69.0216 20.8181509,69.0216 C19.96446,69.0216 19.27626,69.7036 19.27626,70.5496 L19.27626,78.5096 Z" id="Fill-6" fill="#000000"></path>
                        <path d="M36.3823691,78.8514 C36.6063873,78.6494 36.7880236,78.3494 36.7880236,77.9454 C36.7880236,77.2634 36.28146,76.7394 35.5912418,76.7394 C35.2663145,76.7394 35.0644964,76.8194 34.8404782,76.9814 C34.2128236,77.4434 33.5024236,77.7054 32.6507509,77.7054 C31.2703145,77.7054 30.2975509,76.9814 29.9928055,75.5954 L36.0978055,75.5954 C36.9111327,75.5954 37.5387873,75.0114 37.5387873,74.1274 C37.5387873,71.8954 35.9363509,68.9394 32.3056418,68.9394 C29.1411327,68.9394 26.9292055,71.4734 26.9292055,74.5494 L26.9292055,74.5894 C26.9292055,77.8874 29.3429509,80.1574 32.6083691,80.1574 C34.1926418,80.1574 35.4297873,79.6554 36.3823691,78.8514 L36.3823691,78.8514 Z M29.9524418,73.6854 C30.1966418,72.2974 31.0281327,71.3934 32.3056418,71.3934 C33.6033327,71.3934 34.4146418,72.3174 34.5982964,73.6854 L29.9524418,73.6854 Z" id="Fill-8" fill="#000000"></path>
                        <path d="M43.9142236,78.0068 C42.9212782,78.0068 42.23106,77.5248 42.23106,76.7008 L42.23106,76.6608 C42.23106,75.6948 43.0423691,75.1728 44.3602418,75.1728 C45.1110055,75.1728 45.8012236,75.3328 46.3279691,75.5748 L46.3279691,76.1168 C46.3279691,77.2228 45.3552055,78.0068 43.9142236,78.0068 M42.9818236,80.1188 C44.4833509,80.1188 45.51666,79.5748 46.2674236,78.7508 L46.2674236,78.7708 C46.2674236,79.4148 46.8567327,80.0368 47.7487691,80.0368 C48.58026,80.0368 49.2502964,79.3928 49.2502964,78.5688 L49.2502964,73.6648 C49.2502964,72.2168 48.8850055,71.0308 48.0736964,70.2268 C47.3027509,69.4628 46.0857873,69.0208 44.4006055,69.0208 C42.9616418,69.0208 41.9061327,69.2228 40.9313509,69.5848 C40.4449691,69.7648 40.09986,70.2268 40.09986,70.7688 C40.09986,71.4728 40.6689873,72.0168 41.3793873,72.0168 C41.52066,72.0168 41.6437691,71.9968 41.8254055,71.9348 C42.4126964,71.7548 43.1029145,71.6348 43.9545873,71.6348 C45.4964782,71.6348 46.2876055,72.3388 46.2876055,73.6048 L46.2876055,73.7848 C45.51666,73.5248 44.7255327,73.3428 43.62966,73.3428 C41.05446,73.3428 39.2481873,74.4288 39.2481873,76.7808 L39.2481873,76.8208 C39.2481873,78.9528 40.9313509,80.1188 42.9818236,80.1188" id="Fill-10" fill="#000000"></path>
                        <path d="M51.9031964,78.5096 C51.9031964,79.3536 52.5934145,80.0376 53.4450873,80.0376 C54.29676,80.0376 54.9869782,79.3536 54.9869782,78.5096 L54.9869782,73.9056 C54.9869782,72.4596 55.69536,71.7156 56.8517782,71.7156 C58.0081964,71.7156 58.6580509,72.4596 58.6580509,73.9056 L58.6580509,78.5096 C58.6580509,79.3536 59.3462509,80.0376 60.1999418,80.0376 C61.0516145,80.0376 61.7418327,79.3536 61.7418327,78.5096 L61.7418327,73.9056 C61.7418327,72.4596 62.4522327,71.7156 63.6066327,71.7156 C64.7650691,71.7156 65.4129055,72.4596 65.4129055,73.9056 L65.4129055,78.5096 C65.4129055,79.3536 66.1031236,80.0376 66.9547964,80.0376 C67.8064691,80.0376 68.4966873,79.3536 68.4966873,78.5096 L68.4966873,72.9016 C68.4966873,70.3076 67.1162509,68.9396 64.8235964,68.9396 C63.3422509,68.9396 62.2080327,69.5436 61.2534327,70.6496 C60.6863236,69.5636 59.6106327,68.9396 58.1918509,68.9396 C56.6297782,68.9396 55.69536,69.7636 54.9869782,70.6696 L54.9869782,70.5496 C54.9869782,69.7036 54.29676,69.0216 53.4450873,69.0216 C52.5934145,69.0216 51.9031964,69.7036 51.9031964,70.5496 L51.9031964,78.5096 Z" id="Fill-12" fill="#000000"></path>
                        <path d="M71.3193164,78.5096 C71.3193164,79.3536 72.0095345,80.0376 72.8612073,80.0376 C73.7148982,80.0376 74.4030982,79.3536 74.4030982,78.5096 L74.4030982,66.6496 C74.4030982,65.8036 73.7148982,65.1216 72.8612073,65.1216 C72.0095345,65.1216 71.3193164,65.8036 71.3193164,66.6496 L71.3193164,78.5096 Z" id="Fill-14" fill="#000000"></path>
                        <path d="M81.3155727,78.0068 C80.3206091,78.0068 79.6324091,77.5248 79.6324091,76.7008 L79.6324091,76.6608 C79.6324091,75.6948 80.4437182,75.1728 81.7615909,75.1728 C82.5123545,75.1728 83.2025727,75.3328 83.7293182,75.5748 L83.7293182,76.1168 C83.7293182,77.2228 82.7545364,78.0068 81.3155727,78.0068 M80.3831727,80.1188 C81.8847,80.1188 82.9180091,79.5748 83.6687727,78.7508 L83.6687727,78.7708 C83.6687727,79.4148 84.2580818,80.0368 85.1501182,80.0368 C85.9816091,80.0368 86.6516455,79.3928 86.6516455,78.5688 L86.6516455,73.6648 C86.6516455,72.2168 86.2843364,71.0308 85.4750455,70.2268 C84.7041,69.4628 83.4851182,69.0208 81.8019545,69.0208 C80.3609727,69.0208 79.3074818,69.2228 78.3327,69.5848 C77.8463182,69.7648 77.5012091,70.2268 77.5012091,70.7688 C77.5012091,71.4728 78.0703364,72.0168 78.7807364,72.0168 C78.9220091,72.0168 79.0431,71.9968 79.2267545,71.9348 C79.8140455,71.7548 80.5042636,71.6348 81.3559364,71.6348 C82.8978273,71.6348 83.6889545,72.3388 83.6889545,73.6048 L83.6889545,73.7848 C82.9180091,73.5248 82.1268818,73.3428 81.0310091,73.3428 C78.4558091,73.3428 76.6495364,74.4288 76.6495364,76.7808 L76.6495364,76.8208 C76.6495364,78.9528 78.3327,80.1188 80.3831727,80.1188" id="Fill-16" fill="#000000"></path>
                        <path d="M94.9837091,77.5244 C93.5447455,77.5244 92.3459455,76.3384 92.3459455,74.5484 L92.3459455,74.5084 C92.3459455,72.7204 93.5447455,71.5344 94.9837091,71.5344 C96.4246909,71.5344 97.6416545,72.7204 97.6416545,74.5084 L97.6416545,74.5484 C97.6416545,76.3584 96.4246909,77.5244 94.9837091,77.5244 L94.9837091,77.5244 Z M89.3045455,78.5104 C89.3045455,79.3544 89.9927455,80.0364 90.8464364,80.0364 C91.6981091,80.0364 92.3863091,79.3544 92.3863091,78.5284 L92.3863091,78.5104 C93.1168909,79.3744 94.1320364,80.1184 95.7748364,80.1184 C98.3500364,80.1184 100.725436,78.1484 100.725436,74.5484 L100.725436,74.5084 C100.725436,70.9104 98.3096727,68.9404 95.7748364,68.9404 C94.1724,68.9404 93.1370727,69.6844 92.3863091,70.6904 L92.3863091,66.6504 C92.3863091,65.8044 91.6981091,65.1204 90.8464364,65.1204 C89.9927455,65.1204 89.3045455,65.8044 89.3045455,66.6504 L89.3045455,78.5104 Z" id="Fill-18" fill="#000000"></path>
                        <path d="M106.806016,80.118 C109.159216,80.118 110.965489,79.032 110.965489,76.64 L110.965489,76.6 C110.965489,74.63 109.19958,73.906 107.679889,73.404 C106.503289,73 105.465944,72.72 105.465944,72.118 L105.465944,72.076 C105.465944,71.654 105.853435,71.332 106.60218,71.332 C107.252035,71.332 108.083525,71.594 108.95538,72.016 C109.159216,72.118 109.300489,72.158 109.524507,72.158 C110.214725,72.158 110.761653,71.634 110.761653,70.952 C110.761653,70.428 110.477089,70.026 110.031071,69.806 C108.97758,69.282 107.80098,68.98 106.664744,68.98 C104.472998,68.98 102.688925,70.206 102.688925,72.398 L102.688925,72.438 C102.688925,74.53 104.412453,75.232 105.934162,75.674 C107.130944,76.036 108.186453,76.258 108.186453,76.92 L108.186453,76.962 C108.186453,77.444 107.77878,77.766 106.888762,77.766 C106.014889,77.766 104.98158,77.444 103.946253,76.8 C103.78278,76.7 103.56078,76.64 103.336762,76.64 C102.646544,76.64 102.119798,77.162 102.119798,77.846 C102.119798,78.328 102.38418,78.69 102.709107,78.892 C104.02698,79.736 105.465944,80.118 106.806016,80.118" id="Fill-20" fill="#000000"></path>
                        <path d="M31.7183509,16.1982 L79.2465327,16.1982 L79.2465327,31.1502 C79.2465327,33.2142 77.5653873,34.8882 75.4947327,34.8882 L60.3523145,34.8882 C60.1343509,34.8882 59.9406055,34.7462 59.8760236,34.5382 L57.3916418,26.6282 C56.8063691,24.7642 54.1585145,24.7642 53.5732418,26.6282 L51.08886,34.5382 C51.0242782,34.7462 50.8305327,34.8882 50.6105509,34.8882 L35.4701509,34.8882 C33.3994964,34.8882 31.7183509,33.2142 31.7183509,31.1502 L31.7183509,16.1982 Z M85.5008782,19.9362 C85.5008782,18.5602 84.3807873,17.4442 82.9983327,17.4442 L82.9983327,14.9522 C85.7612236,14.9522 88.0014055,17.1842 88.0014055,19.9362 L88.0014055,31.1502 C88.0014055,31.8382 87.4423691,32.3962 86.7521509,32.3962 C86.0599145,32.3962 85.5008782,31.8382 85.5008782,31.1502 L85.5008782,19.9362 Z M25.4640055,19.9362 C25.4640055,18.5602 26.5840964,17.4442 27.9665509,17.4442 L27.9665509,14.9522 C25.2016418,14.9522 22.9634782,17.1842 22.9634782,19.9362 L22.9634782,31.1502 C22.9634782,31.8382 23.5225145,32.3962 24.2147509,32.3962 C24.9049691,32.3962 25.4640055,31.8382 25.4640055,31.1502 L25.4640055,19.9362 Z M55.4824418,31.4002 L53.6680964,37.2222 C53.4077509,38.0582 52.6327691,38.6262 51.7568782,38.6262 L35.4701509,38.6262 L35.4701509,42.8622 C35.4701509,44.2382 36.5902418,45.3542 37.9726964,45.3542 L44.7255327,45.3542 C45.4177691,45.3542 45.9768055,45.9122 45.9768055,46.6002 L45.9768055,50.4082 L50.6852236,45.7182 C50.9193327,45.4862 51.2382055,45.3542 51.5691873,45.3542 L72.9921873,45.3542 C74.3746418,45.3542 75.4947327,44.2382 75.4947327,42.8622 L75.4947327,38.6262 L59.2080055,38.6262 C58.3321145,38.6262 57.5571327,38.0582 57.2967873,37.2222 L55.4824418,31.4002 Z M35.4701509,10.9642 C35.4701509,9.0382 37.0382782,7.4762 38.9716964,7.4762 L71.9931873,7.4762 C73.9266055,7.4762 75.4947327,9.0382 75.4947327,10.9642 L75.4947327,12.4602 L35.4701509,12.4602 L35.4701509,10.9642 Z M90.5019327,19.9362 L90.5019327,31.1502 C90.5019327,35.2782 87.1436782,38.6262 82.9983327,38.6262 L79.2465327,38.6262 L79.2465327,42.8622 C79.2465327,46.3022 76.4473145,49.0922 72.9921873,49.0922 L52.70946,49.0922 C52.64286,49.0922 52.5782782,49.1182 52.53186,49.1642 L44.7880964,56.8802 C43.8415691,57.8222 42.2250055,57.1562 42.2250055,55.8242 L42.2250055,49.3402 C42.2250055,49.2022 42.1119873,49.0922 41.9747509,49.0922 L37.9726964,49.0922 C34.5175691,49.0922 31.7183509,46.3022 31.7183509,42.8622 L31.7183509,38.6262 L27.9665509,38.6262 C23.8212055,38.6262 20.4609327,35.2782 20.4609327,31.1502 L20.4609327,19.9362 C20.4609327,15.8062 23.8212055,12.4602 27.9665509,12.4602 L27.9665509,10.9642 C27.9665509,4.9082 32.8949509,0.0002 38.9716964,0.0002 L71.9931873,0.0002 C78.0699327,0.0002 82.9983327,4.9082 82.9983327,10.9642 L82.9983327,12.4602 C87.1436782,12.4602 90.5019327,15.8062 90.5019327,19.9362 L90.5019327,19.9362 Z" id="Fill-22" fill="#000000"></path>
                        <path d="M40.5902782,21.536 C40.2068236,21.974 39.9727145,22.548 39.9727145,23.176 C39.9727145,24.552 41.0928055,25.666 42.47526,25.666 C43.1654782,25.666 43.7911145,25.388 44.2431873,24.938 C44.4106964,24.77 44.5539873,24.58 44.6690236,24.372 C44.8647873,24.018 44.9757873,23.61 44.9757873,23.176 C44.9757873,21.798 43.8556964,20.684 42.47526,20.684 C41.7244964,20.684 41.0504236,21.014 40.5902782,21.536 M42.9757691,18.69 C40.2128782,18.69 37.9726964,20.92 37.9726964,23.674 L37.9726964,27.412 C37.9726964,30.164 40.2128782,32.396 42.9757691,32.396 C45.73866,32.396 47.9788418,30.164 47.9788418,27.412 L47.9788418,23.674 C47.9788418,20.92 45.73866,18.69 42.9757691,18.69" id="Fill-24" fill="#000000"></path>
                        <path d="M65.2607345,22.0428 C65.0871709,22.3828 64.98828,22.7668 64.98828,23.1748 C64.98828,24.5508 66.1083709,25.6668 67.4888073,25.6668 C68.1810436,25.6668 68.8046618,25.3888 69.2567345,24.9368 C69.5473527,24.6508 69.7632982,24.2928 69.8843891,23.8948 C69.9530073,23.6668 69.9913527,23.4248 69.9913527,23.1748 C69.9913527,21.7988 68.8712618,20.6828 67.4888073,20.6828 C66.7985891,20.6828 66.1729527,20.9608 65.72088,21.4128 C65.5352073,21.5968 65.3818255,21.8088 65.2607345,22.0428 M67.9893164,18.6888 C65.2264255,18.6888 62.9862436,20.9208 62.9862436,23.6728 L62.9862436,27.4128 C62.9862436,30.1648 65.2264255,32.3948 67.9893164,32.3948 C70.7522073,32.3948 72.9923891,30.1648 72.9923891,27.4128 L72.9923891,23.6728 C72.9923891,20.9208 70.7522073,18.6888 67.9893164,18.6888" id="Fill-26" fill="#000000"></path>
                    </g>
                </g>
                <g id="01-Atoms/Lines/Vertical" transform="translate(319.000000, 0.000000)" stroke="#2F3132">
                    <line x1="1.5" y1="-5.07406617e-17" x2="1.5" y2="117" id="Atoms/Vertical-Line"></line>
                </g>
                <g id="01-Atoms/Brand-Logos/Logitech/Logitech-(WW)/black" transform="translate(-0.000000, 29.000000)" fill="#000000">
                    <g id="logitech-black">
                        <path d="M228.987314,13.2354945 L228.987314,12.6341303 L229.359732,12.6341303 C229.658209,12.6341303 229.770207,12.7470574 229.770207,12.9350865 C229.770207,13.1225674 229.658209,13.2354945 229.360275,13.2354945 L228.987314,13.2354945 Z M229.993657,12.9350865 C229.993657,12.5590283 229.732693,12.4088243 229.359732,12.4088243 L228.763864,12.4088243 L228.763864,14.1378149 L228.987314,14.1378149 L228.987314,13.4608005 L229.359732,13.4608005 L229.770207,14.1378149 L230.030627,14.1378149 L229.583726,13.4235236 C229.84469,13.3856985 229.993657,13.2354945 229.993657,12.9350865 L229.993657,12.9350865 Z M229.359732,14.7391791 C228.540413,14.7391791 227.906488,14.0999898 227.906488,13.2733196 C227.906488,12.4839263 228.540413,11.8452852 229.359732,11.8452852 C230.142624,11.8452852 230.776549,12.4839263 230.776549,13.2733196 C230.776549,14.0999898 230.142624,14.7391791 229.359732,14.7391791 L229.359732,14.7391791 Z M229.359732,11.619431 C228.428416,11.619431 227.683037,12.3715474 227.683037,13.2733196 C227.683037,14.2129169 228.428416,14.9644851 229.359732,14.9644851 C230.254621,14.9644851 231,14.2129169 231,13.2733196 C231,12.3715474 230.254621,11.619431 229.359732,11.619431 L229.359732,11.619431 Z M95.3823849,0 C92.2774556,0 89.8336354,2.46466134 89.8336354,5.66170424 C89.8336354,8.791868 92.2774556,11.2559811 95.3823849,11.2559811 C98.6194273,11.2559811 101.063248,8.791868 101.063248,5.66170424 C101.063248,2.46466134 98.6194273,0 95.3823849,0 L95.3823849,0 Z M116.321493,4.86244352 L107.8668,4.86244352 L107.8668,15.3854949 L103.308626,15.3854949 L103.308626,22.9779236 L107.8668,22.9779236 L107.8668,49.5525205 L116.321493,49.5525205 L116.321493,22.9779236 L120.945451,22.9779236 L120.945451,15.3854949 L116.321493,15.3854949 L116.321493,4.86244352 Z M178.346684,22.5782933 C181.913193,22.5782933 184.819681,24.4432349 187.06506,27.0416546 L192.94382,21.1804093 C189.641537,16.9840164 184.423342,14.3203621 178.478797,14.3203621 C168.239761,14.3203621 160.181406,22.1792111 160.181406,32.4358422 C160.181406,42.6924734 168.239761,50.5524187 178.478797,50.5524187 C184.423342,50.5524187 189.641537,47.8876681 192.94382,43.6923715 L187.06506,37.8311262 C184.886009,40.3615703 181.913193,42.2933912 178.280355,42.2933912 C172.863175,42.2933912 168.702428,38.0306673 168.702428,32.4358422 C168.702428,26.8415653 172.863175,22.5782933 178.346684,22.5782933 L178.346684,22.5782933 Z M214.80772,14.3203621 C210.646974,14.3203621 207.079377,15.9183354 204.569772,18.6488688 L204.569772,0.933019038 L196.114534,0.933019038 L196.114534,49.5525205 L204.569772,49.5525205 L204.569772,30.9705309 C204.569772,26.0417564 207.674157,22.6451724 212.826568,22.6451724 C217.648967,22.6451724 220.290141,25.642126 220.290141,30.9705309 L220.290141,49.5525205 L228.745379,49.5525205 L228.745379,29.4388886 C228.745379,19.9815182 222.867162,14.3203621 214.80772,14.3203621 L214.80772,14.3203621 Z M139.968648,14.3203621 C129.796484,14.3203621 122.068141,22.1792111 122.068141,32.6353833 C122.068141,42.9594418 129.135919,50.5524187 140.100217,50.5524187 C146.177419,50.5524187 151.594056,48.2872984 155.557448,44.0245746 L149.877129,38.3639667 C147.102211,41.0276209 144.130482,42.9594418 140.298659,42.9594418 C135.675245,42.9594418 132.173976,40.2952394 130.985502,35.8324262 L157.340703,35.8324262 L157.340703,33.7679434 C157.340703,22.1123319 150.20714,14.3203621 139.968648,14.3203621 L139.968648,14.3203621 Z M130.787604,28.9060481 C131.90975,24.376904 135.34469,21.8459117 139.77075,21.8459117 C144.196267,21.8459117 147.49855,24.3100248 148.555455,28.9060481 L130.787604,28.9060481 Z M69.5550924,61.6746415 C64.138456,61.6746415 59.8450526,57.4124658 59.8450526,51.8845199 L51.2582457,51.8845199 C51.2582457,62.1406029 59.3166002,70 69.5550924,70 C79.793041,70 87.8524828,62.1406029 87.8524828,51.8845199 L79.2651323,51.8845199 C79.2651323,57.4124658 74.9717289,61.6746415 69.5550924,61.6746415 L69.5550924,61.6746415 Z M91.2210946,49.5525205 L99.676332,49.5525205 L99.676332,15.3854949 L91.2210946,15.3854949 L91.2210946,49.5525205 Z M0,49.5525205 L8.4552374,49.5525205 L8.4552374,0.933019038 L0,0.933019038 L0,49.5525205 Z M30.0543675,14.3203621 C19.816419,14.3203621 11.7580645,22.1792111 11.7580645,32.4358422 C11.7580645,42.6924734 19.816419,50.5524187 30.0543675,50.5524187 C40.2934034,50.5524187 48.3512142,42.6924734 48.3512142,32.4358422 C48.3512142,22.1792111 40.2934034,14.3203621 30.0543675,14.3203621 L30.0543675,14.3203621 Z M30.0543675,42.2933912 C24.6382747,42.2933912 20.3443277,37.9643363 20.3443277,32.3689631 C20.3443277,26.8415653 24.6382747,22.5782933 30.0543675,22.5782933 C35.5373324,22.5782933 39.8307358,26.8415653 39.8307358,32.4358422 C39.8307358,38.0306673 35.5373324,42.2933912 30.0543675,42.2933912 L30.0543675,42.2933912 Z M87.5219282,22.1792111 L87.5219282,15.3854949 L75.6317506,15.3854949 C73.7163827,14.7199925 71.6683581,14.3203621 69.5550924,14.3203621 C59.3166002,14.3203621 51.2582457,22.1792111 51.2582457,32.4358422 C51.2582457,42.6924734 59.3166002,50.5524187 69.5550924,50.5524187 C79.793041,50.5524187 87.8524828,42.6924734 87.8524828,32.4358422 C87.8524828,28.9723791 86.9271475,25.5757951 85.078108,23.0448028 L87.5219282,22.1792111 Z M69.5550924,42.2933912 C64.138456,42.2933912 59.8450526,37.9643363 59.8450526,32.3689631 C59.8450526,26.8415653 64.138456,22.5782933 69.5550924,22.5782933 C75.0375136,22.5782933 79.3314607,26.8415653 79.3314607,32.4358422 C79.3314607,38.0306673 75.0375136,42.2933912 69.5550924,42.2933912 L69.5550924,42.2933912 Z" id="Fill-1"></path>
                    </g>
                </g>
            </g>
        </g>
    </g>
</svg>